<?xml version="1.0" encoding="UTF-8"?><svg xmlns="http://www.w3.org/2000/svg" viewBox="0 0 153.05 141.17"><defs><style>.d{fill:#a45637;}.d,.e,.f{stroke-width:0px;}.e{fill:#8e633c;}.f{fill:#fff;}</style></defs><g id="a"><path class="f" d="m40.21,17.68c1.84.14,6.01-8.02,6.01-8.02l10.1-3.62,10.81-4.87,12.65-.77,9.03,1.78,5.7,2.97,9.44,3.21,4.1,3.68,3.8,5.64,12.24.92,7.9,2.11,4.51,4.99,6.53,12.24,3.03,8.85v10.57l5.92,25.18.49,12.35-.77,9.15-4.69,11.23-8.79,9.09-16.21,8.37-18.65,6.12-25.3,1.84-25.84-1.54-14.61-4.1-19.84-8.55-9.32-7.9-3.98-6.53-3.5-8.73-.42-10.16.97-13.6,4.25-17.64,1.43-7.31-.36-6.83,1.43-6.24,5.4-11.4,4.45-7.54,7.25-3.15,8.2-1.43,6.64-.36Z"/></g><g id="b"><path class="e" d="m66.95.52c-.8.3-4.2,1.8-7.5,3.4s-7.7,3.2-9.8,3.5c-3,.5-4.1,1.3-5.7,4.4-2.1,4.2-3.8,5-13,5.8-3,.2-7.4,1.3-9.7,2.3-3.9,1.7-4.6,2.6-9.8,13.7-5.2,10.8-5.6,12.2-5.1,16.8.4,3.9-.1,7.7-2.5,16-2.3,8.3-3.2,14-3.6,23.2-.5,11.1-.4,12.8,1.8,19,3.6,10.2,10.2,16.4,24.2,22.6,6,2.6,14.1,5.6,18,6.8,15,4.2,50.3,4.2,64.9,0,3.6-1,11.5-4.1,17.5-6.7,19.5-8.7,26.6-19,26.4-38.4-.1-9.9-.4-11.9-4.2-26.5-2.1-8.1-2.7-12.3-2.3-16,.5-4.6.1-6-5-16.7-6.3-13.2-7.5-14.3-17.9-15.9-13.1-1.9-12.6-1.7-14.7-5.9-1.6-3.2-2.6-4-5.7-4.5-2.1-.3-6.9-2.2-10.8-4.1C86.05.22,84.75-.08,76.95.02c-4.7,0-9.2.3-10,.5Zm25.2,4.2c3.5,1.8,7.8,3.5,9.6,3.8,2.2.5,4.1,1.9,6.2,4.7,1.7,2.3,3,4.3,3,4.6-.1.8-13.5,7.1-15.2,7.1-.7.1-2.4.7-3.8,1.5-2.3,1.2-2.7,1.2-4.5-1.1-3.8-4.6-16.5-4.5-20.8.2l-2.3,2.4-5.4-2.2c-8.8-3.5-16.9-7.3-16.9-7.9-.1-.3,1.3-2.3,2.9-4.6,2.3-3.1,3.9-4.2,6.8-4.8,2-.3,5.3-1.6,7.2-2.7,6.1-3.7,11.1-4.8,19.2-4.5,6.3.3,8.9,1,14,3.5Zm35.5,15.3c5.4,1.7,8,4.6,12.9,14.7,4.3,8.9,4.7,10.3,4.8,17.7.1,5.6,1.2,11.6,3.4,19.8,5.9,21.6,3.8,36.7-6.7,47.7-3.7,4-6.9,6-16.6,10.4-16.9,7.6-27,9.6-49,9.6s-32-2-48.3-9.3c-13.9-6.2-19-10.5-23.4-19.5-3.2-6.5-3.3-7.1-3.2-19.2,0-11.1.4-13.7,3.3-23.5,2.7-9,3.2-12,2.7-16.7-.5-5.4-.3-6.3,5-17.2,5.4-11.1,5.7-11.5,10.4-13.5,7.4-3.2,16.3-2.9,23.3.8,3,1.6,7.2,3.4,9.3,4.1,6.8,2.2,6.8,2.7.9,8.5-3.8,3.7-5.5,6.1-5.5,7.9,0,2.7-4.1,6.3-9.7,8.5-3.4,1.4-5.3,5.1-5.3,10.5,0,6.7,7.8,32.7,10.2,34.2.8.5.9.1.3-1.2-1.8-4.3-6.4-19.3-7.8-25.5-2.1-9.7-.5-16.8,3.9-16.9.6,0,2.8-1.3,5-3,2.1-1.6,4.4-3,5-3s2.2-.8,3.5-1.8c4-3.1,19-4.6,30.1-3.1,8.4,1.1,9.9,1.7,15.8,5.7,3.6,2.5,7.7,4.9,9.3,5.4,4.3,1.6,5,7.1,2.3,19.3-1.5,6.9-4.5,16.5-7.1,22.9-.6,1.3-.5,1.7.3,1.2,1.5-.9,4.9-10.2,7.7-21.5,4.2-16.2,3.3-20.1-5.3-24.6-4.2-2.2-5.7-3.5-5.5-5,.2-3-2.2-6.9-7.3-11.4-5.2-4.5-5.1-5.2,1.1-7.1,2.2-.7,5.9-2.3,8.1-3.7,6.9-4,13.9-4.6,22.1-2.2Z"/></g><g id="c"><path class="d" d="m76.76,39.32c-.64,0-8.29.18-10.11.36s-9.6,1.46-10.81,2.31-2.8,1.96-3.53,1.7c-1.48-.52,1.95-5.16,3.71-7.47s5.83-4.98,7.23-6.07,3.52-3.52,5.83-5.29,7.35-1.94,7.99-1.94c.64,0,5.68.18,7.99,1.94s4.43,4.19,5.83,5.29,5.47,3.77,7.23,6.07,5.18,7.13,3.7,7.65c-.67.24-2.3-1.03-3.52-1.88s-8.99-2.13-10.81-2.31-9.46-.36-10.11-.36"/></g></svg>